<?xml version="1.0" standalone="no"?>
<!DOCTYPE svg PUBLIC "-//W3C//DTD SVG 20010904//EN"
 "http://www.w3.org/TR/2001/REC-SVG-20010904/DTD/svg10.dtd">
<svg version="1.0" xmlns="http://www.w3.org/2000/svg"
 width="150.000000pt" height="150.000000pt" viewBox="0 0 150.000000 150.000000"
 preserveAspectRatio="xMidYMid meet">
<metadata>
Created by potrace 1.14, written by Peter Selinger 2001-2017
</metadata>
<g transform="translate(0.000000,150.000000) scale(0.100000,-0.100000)"
fill="#000000" stroke="none">
<path d="M594 1381 c-191 -65 -315 -230 -315 -422 0 -42 5 -95 10 -116 16 -58
72 -159 159 -290 101 -151 144 -230 187 -338 43 -111 59 -135 90 -135 27 0 48
33 86 137 31 81 77 165 192 341 136 211 159 264 165 377 3 79 0 99 -23 159
-55 145 -149 238 -291 286 -72 25 -188 26 -260 1z m261 -150 c155 -74 223
-253 153 -401 -52 -112 -156 -181 -271 -183 -133 -3 -229 53 -286 166 -30 58
-34 76 -34 140 0 58 5 84 26 127 57 121 147 178 282 179 57 1 81 -4 130 -28z"/>
<path d="M574 1166 c-3 -8 8 -41 25 -72 17 -32 31 -61 31 -66 0 -5 -11 -13
-25 -18 -25 -10 -34 -43 -15 -55 17 -11 11 -25 -10 -25 -26 0 -36 -25 -21 -53
9 -18 9 -31 -3 -64 -13 -36 -13 -43 0 -60 11 -13 17 -15 21 -5 5 12 52 77 100
137 l23 28 40 -44 c45 -50 46 -53 25 -103 -12 -29 -13 -41 -4 -58 12 -22 12
-22 35 8 15 18 31 28 44 26 13 -2 20 2 20 12 0 9 13 18 35 22 19 3 35 10 35
14 0 19 -34 40 -65 40 -26 0 -38 7 -52 28 -20 29 -43 78 -43 91 0 11 155 37
193 33 57 -6 18 47 -41 55 -29 4 -46 13 -57 29 -18 27 -43 31 -51 9 -9 -22
-29 -18 -47 8 -14 21 -15 22 -35 3 -27 -24 -34 -20 -74 39 -34 52 -73 70 -84
41z"/>
</g>
</svg>
